# xmcd CD database file generated by OrangeCD 6.4
#
# Track frame offsets:
#	150
#	11715
#	23605
#	36565
#	49025
#	61595
#	74672
#	93402
#	105187
#	121160
#	135527
#	149365
#	166270
#	179682
#	192040
#	221380
#	247805
#
# Disc length: 3571 seconds
#
# Revision: 2
# Processed by: cddbd v1.5.2PL0 Copyright (c) Steve Scherf et al.
# Submitted via: OrangeCD 6.4
#
DISCID=e30df111
DTITLE=Various Artist - You Can't Hurry Love (All The Great Love Songs Of The Past 25 
DTITLE=Years)
DYEAR=1986
DGENRE=R&B
TTITLE0=Diana Ross and The Supremes - Where Did Our Love Go
TTITLE1=Diana Ross and The Supremes - Baby Love
TTITLE2=Diana Ross and The Supremes - Stop In The Name of Love
TTITLE3=Diana Ross and The Supremes - You Can't Hurry Love
TTITLE4=Diana Ross and The Supremes - Love Is Here And Now Yor're gone
TTITLE5=Diana Ross and The Supremes - Love Child
TTITLE6=The Supremes - Stoned Love
TTITLE7=Stevie Wonder - I Was Made To Love Her
TTITLE8=The Temptations - I Could Never Love Another (After Loving Your)
TTITLE9=Al Green - I'm Still In Love With You
TTITLE10=Al Green - L.O.V.E.
TTITLE11=Diana Ross - Love Hangover
TTITLE12=Marvin Gaye - How Sweet It Is
TTITLE13=Four Tops - Baby I Need Your Loving
TTITLE14=Commodores - Sweet Love
TTITLE15=El DeBarge with DeBarge - All This Love
TTITLE16=Diana Ross and Lionel Richie - Endless Love
EXTD=
EXTT0=
EXTT1=
EXTT2=
EXTT3=
EXTT4=
EXTT5=
EXTT6=
EXTT7=
EXTT8=
EXTT9=
EXTT10=
EXTT11=
EXTT12=
EXTT13=
EXTT14=
EXTT15=
EXTT16=
PLAYORDER=
